<?xml version="1.0" standalone="no"?>
<!DOCTYPE svg PUBLIC "-//W3C//DTD SVG 20010904//EN"
 "http://www.w3.org/TR/2001/REC-SVG-20010904/DTD/svg10.dtd">
<svg version="1.0" xmlns="http://www.w3.org/2000/svg"
 width="512.000000pt" height="512.000000pt" viewBox="0 0 512.000000 512.000000"
 preserveAspectRatio="xMidYMid meet">

<g transform="translate(0.000000,512.000000) scale(0.100000,-0.100000)"
fill="#000000" stroke="none">
<path d="M1514 5101 c-53 -24 -77 -65 -108 -184 -146 -559 -582 -995 -1143
-1143 -54 -14 -113 -35 -131 -47 -69 -46 -94 -152 -50 -217 36 -52 64 -67 188
-100 389 -105 712 -340 932 -680 96 -147 164 -306 209 -484 32 -126 82 -178
174 -178 88 0 143 53 170 164 24 100 80 259 117 332 193 386 543 695 923 813
55 18 133 42 174 55 60 18 80 30 104 60 56 70 44 177 -25 228 -16 12 -70 33
-119 46 -48 13 -132 40 -186 60 -482 178 -855 598 -983 1107 -26 99 -52 141
-106 167 -50 25 -87 25 -140 1z"/>
<path d="M3936 3465 c-66 -23 -95 -61 -123 -161 -101 -364 -361 -627 -718
-729 -49 -14 -101 -34 -115 -44 -95 -69 -94 -211 3 -269 18 -11 74 -31 126
-46 336 -95 596 -357 696 -703 32 -110 51 -142 101 -170 48 -28 103 -29 153
-3 49 25 73 64 101 165 92 341 364 616 703 711 50 15 107 36 125 48 64 40 91
140 57 205 -25 49 -69 77 -157 101 -182 48 -388 173 -501 303 -114 131 -177
247 -226 416 -18 62 -39 113 -53 128 -48 51 -113 70 -172 48z"/>
<path d="M1924 1743 c-12 -2 -40 -20 -63 -39 -33 -29 -44 -48 -61 -107 -83
-290 -267 -474 -557 -557 -60 -17 -78 -28 -107 -62 -61 -71 -57 -159 10 -222
18 -16 62 -37 114 -53 270 -82 446 -256 530 -524 40 -125 94 -179 178 -179 81
1 144 66 172 175 34 135 135 289 253 385 68 56 193 120 272 140 140 35 205
130 161 234 -23 55 -64 85 -156 113 -145 44 -257 111 -345 204 -94 100 -137
174 -184 319 -48 146 -108 195 -217 173z"/>
</g>
</svg>
